<svg width="1020" height="844" viewBox="0 0 1020 844" class="keymap" xmlns="http://www.w3.org/2000/svg" xmlns:xlink="http://www.w3.org/1999/xlink">
<defs>/* start glyphs */
<svg id="bt_icon">
<svg xmlns="http://www.w3.org/2000/svg" class="icon icon-tabler icon-tabler-bluetooth" viewBox="0 0 24 24" stroke-width="2" stroke="currentColor" fill="none" stroke-linecap="round" stroke-linejoin="round">
    <path stroke="none" d="M0 0h24v24H0z" fill="none"></path>
    <path d="M7 8l10 8l-5 4l0 -16l5 4l-10 8"></path>
</svg>

</svg>
<svg id="mdi:play-pause">
<svg xmlns="http://www.w3.org/2000/svg" id="mdi-play-pause" viewBox="0 0 24 24"><path d="M3,5V19L11,12M13,19H16V5H13M18,5V19H21V5" /></svg>
</svg>
<svg id="mdi:skip-next">
<svg xmlns="http://www.w3.org/2000/svg" id="mdi-skip-next" viewBox="0 0 24 24"><path d="M16,18H18V6H16M6,18L14.5,12L6,6V18Z" /></svg>
</svg>
<svg id="mdi:skip-previous">
<svg xmlns="http://www.w3.org/2000/svg" id="mdi-skip-previous" viewBox="0 0 24 24"><path d="M6,18V6H8V18H6M9.5,12L18,6V18L9.5,12Z" /></svg>
</svg>
<svg id="mdi:volume-minus">
<svg xmlns="http://www.w3.org/2000/svg" id="mdi-volume-minus" viewBox="0 0 24 24"><path d="M3,9H7L12,4V20L7,15H3V9M14,11H22V13H14V11Z" /></svg>
</svg>
<svg id="mdi:volume-off">
<svg xmlns="http://www.w3.org/2000/svg" id="mdi-volume-off" viewBox="0 0 24 24"><path d="M12,4L9.91,6.09L12,8.18M4.27,3L3,4.27L7.73,9H3V15H7L12,20V13.27L16.25,17.53C15.58,18.04 14.83,18.46 14,18.7V20.77C15.38,20.45 16.63,19.82 17.68,18.96L19.73,21L21,19.73L12,10.73M19,12C19,12.94 18.8,13.82 18.46,14.64L19.97,16.15C20.62,14.91 21,13.5 21,12C21,7.72 18,4.14 14,3.23V5.29C16.89,6.15 19,8.83 19,12M16.5,12C16.5,10.23 15.5,8.71 14,7.97V10.18L16.45,12.63C16.5,12.43 16.5,12.21 16.5,12Z" /></svg>
</svg>
<svg id="mdi:volume-plus">
<svg xmlns="http://www.w3.org/2000/svg" id="mdi-volume-plus" viewBox="0 0 24 24"><path d="M3,9H7L12,4V20L7,15H3V9M14,11H17V8H19V11H22V13H19V16H17V13H14V11Z" /></svg>
</svg>
<svg id="tabler:file-arrow-left">
<svg
  xmlns="http://www.w3.org/2000/svg"
 
 
  viewBox="0 0 24 24"
  fill="none"
  stroke="currentColor"
  stroke-width="2"
  stroke-linecap="round"
  stroke-linejoin="round"
  class="icon icon-tabler icons-tabler-outline icon-tabler-file-arrow-left"
>
  <path stroke="none" d="M0 0h24v24H0z" fill="none"/>
  <path d="M14 3v4a1 1 0 0 0 1 1h4" />
  <path d="M17 21h-10a2 2 0 0 1 -2 -2v-14a2 2 0 0 1 2 -2h7l5 5v11a2 2 0 0 1 -2 2z" />
  <path d="M15 15h-6" />
  <path d="M11.5 17.5l-2.5 -2.5l2.5 -2.5" />
</svg>
</svg>
<svg id="tabler:file-arrow-right">
<svg
  xmlns="http://www.w3.org/2000/svg"
 
 
  viewBox="0 0 24 24"
  fill="none"
  stroke="currentColor"
  stroke-width="2"
  stroke-linecap="round"
  stroke-linejoin="round"
  class="icon icon-tabler icons-tabler-outline icon-tabler-file-arrow-right"
>
  <path stroke="none" d="M0 0h24v24H0z" fill="none"/>
  <path d="M14 3v4a1 1 0 0 0 1 1h4" />
  <path d="M17 21h-10a2 2 0 0 1 -2 -2v-14a2 2 0 0 1 2 -2h7l5 5v11a2 2 0 0 1 -2 2z" />
  <path d="M9 15h6" />
  <path d="M12.5 17.5l2.5 -2.5l-2.5 -2.5" />
</svg>
</svg>
<svg id="tabler:repeat">
<svg
  xmlns="http://www.w3.org/2000/svg"
 
 
  viewBox="0 0 24 24"
  fill="none"
  stroke="currentColor"
  stroke-width="2"
  stroke-linecap="round"
  stroke-linejoin="round"
  class="icon icon-tabler icons-tabler-outline icon-tabler-repeat"
>
  <path stroke="none" d="M0 0h24v24H0z" fill="none"/>
  <path d="M4 12v-3a3 3 0 0 1 3 -3h13m-3 -3l3 3l-3 3" />
  <path d="M20 12v3a3 3 0 0 1 -3 3h-13m3 3l-3 -3l3 -3" />
</svg>
</svg>
</defs>/* end glyphs */
<style>/* inherit to force styles through use tags */
svg path {
    fill: inherit;
}

/* font and background color specifications */
svg.keymap {
    font-family: SFMono-Regular,Consolas,Liberation Mono,Menlo,monospace;
    font-size: 14px;
    font-kerning: normal;
    text-rendering: optimizeLegibility;
    fill: #24292e;
}

/* default key styling */
rect.key {
    fill: #f6f8fa;
}

rect.key, rect.combo {
    stroke: #c9cccf;
    stroke-width: 1;
}

/* default key side styling, only used is draw_key_sides is set */
rect.side {
    filter: brightness(90%);
}

/* color accent for combo boxes */
rect.combo, rect.combo-separate {
    fill: #cdf;
}

/* color accent for held keys */
rect.held, rect.combo.held {
    fill: #fdd;
}

/* color accent for ghost (optional) keys */
rect.ghost, rect.combo.ghost {
    stroke-dasharray: 4, 4;
    stroke-width: 2;
}

text {
    text-anchor: middle;
    dominant-baseline: middle;
}

/* styling for layer labels */
text.label {
    font-weight: bold;
    text-anchor: start;
    stroke: white;
    stroke-width: 4;
    paint-order: stroke;
}

/* styling for optional footer */
text.footer {
    text-anchor: end;
    dominant-baseline: auto;
    stroke: white;
    stroke-width: 4;
    paint-order: stroke;
}

/* styling for combo tap, and key non-tap label text */
text.combo, text.hold, text.shifted, text.left, text.right {
    font-size: 11px;
}

text.hold {
    text-anchor: middle;
    dominant-baseline: auto;
}

text.shifted {
    text-anchor: middle;
    dominant-baseline: hanging;
}

text.left {
    text-anchor: start;
}

text.right {
    text-anchor: end;
}

text.layer-activator {
    text-decoration: underline;
}

/* styling for hold/shifted label text in combo box */
text.combo.hold, text.combo.shifted, text.combo.left, text.combo.right {
    font-size: 8px;
}

/* lighter symbol for transparent keys */
text.trans {
    fill: #7b7e81;
}

/* styling for combo dendrons */
path.combo {
    stroke-width: 1;
    stroke: gray;
    fill: none;
}

/* Start Tabler Icons Cleanup */
/* cannot use height/width with glyphs */
.icon-tabler > path {
    fill: inherit;
    stroke: inherit;
    stroke-width: 2;
}
/* hide tabler's default box */
.icon-tabler > path[stroke="none"][fill="none"] {
    visibility: hidden;
}
/* End Tabler Icons Cleanup */

@media (prefers-color-scheme: dark) {
svg.keymap { fill: #d1d6db; }
rect.key { fill: #3f4750; }
rect.key, rect.combo { stroke: #60666c; }
rect.combo, rect.combo-separate { fill: #1f3d7a; }
rect.held, rect.combo.held { fill: #854747; }
text.label, text.footer { stroke: black; }
text.trans { fill: #7e8184; }
path.combo { stroke: #7f7f7f; }

}
rect.key { fill: #f6f8fa; stroke: #c9cccf; stroke-width: 1;}
rect.held, rect.combo.held { fill: #fdd;}
rect.ghost, rect.combo.ghost { fill: #ddd; stroke-dasharray: none; stroke-width: 1;}
rect.thumb, rect.combo.thumb { fill: #303030; stroke-width: 0;}
svg.keymap { font-size: 14px; background-color: #303030;}
text.label { stroke: none; fill: #e0f0f0;}

/* styling for combo tap, and key hold/shifted label text */
text.combo, text.hold, text.shifted {
    font-size: 11px;
}
/* styling for hold/shifted label text in combo box */
text.combo.hold, text.combo.shifted {
    font-size: 8px;
}
</style>
<g transform="translate(30, 0)" class="layer-Base">
<text x="0" y="28" class="label" id="Base">Base</text>
<g transform="translate(0, 80)">
<g transform="translate(32, 56)" class="key keypos-0">
<rect rx="6" ry="6" x="-30" y="-30" width="60" height="60" class="key"/>
</g>
<g transform="translate(96, 56)" class="key keypos-1">
<rect rx="6" ry="6" x="-30" y="-30" width="60" height="60" class="key"/>
</g>
<g transform="translate(160, 40)" class="key keypos-2">
<rect rx="6" ry="6" x="-30" y="-30" width="60" height="60" class="key"/>
</g>
<g transform="translate(224, 32)" class="key keypos-3">
<rect rx="6" ry="6" x="-30" y="-30" width="60" height="60" class="key"/>
</g>
<g transform="translate(288, 40)" class="key keypos-4">
<rect rx="6" ry="6" x="-30" y="-30" width="60" height="60" class="key"/>
</g>
<g transform="translate(352, 48)" class="key keypos-5">
<rect rx="6" ry="6" x="-30" y="-30" width="60" height="60" class="key"/>
</g>
<g transform="translate(608, 48)" class="key keypos-6">
<rect rx="6" ry="6" x="-30" y="-30" width="60" height="60" class="key"/>
</g>
<g transform="translate(672, 40)" class="key keypos-7">
<rect rx="6" ry="6" x="-30" y="-30" width="60" height="60" class="key"/>
</g>
<g transform="translate(736, 32)" class="key keypos-8">
<rect rx="6" ry="6" x="-30" y="-30" width="60" height="60" class="key"/>
</g>
<g transform="translate(800, 40)" class="key keypos-9">
<rect rx="6" ry="6" x="-30" y="-30" width="60" height="60" class="key"/>
</g>
<g transform="translate(864, 56)" class="key keypos-10">
<rect rx="6" ry="6" x="-30" y="-30" width="60" height="60" class="key"/>
</g>
<g transform="translate(928, 56)" class="key keypos-11">
<rect rx="6" ry="6" x="-30" y="-30" width="60" height="60" class="key"/>
</g>
<g transform="translate(32, 120)" class="key keypos-12">
<rect rx="6" ry="6" x="-30" y="-30" width="60" height="60" class="key"/>
</g>
<g transform="translate(96, 120)" class="key keypos-13">
<rect rx="6" ry="6" x="-30" y="-30" width="60" height="60" class="key"/>
</g>
<g transform="translate(160, 104)" class="key keypos-14">
<rect rx="6" ry="6" x="-30" y="-30" width="60" height="60" class="key"/>
</g>
<g transform="translate(224, 96)" class="key keypos-15">
<rect rx="6" ry="6" x="-30" y="-30" width="60" height="60" class="key"/>
</g>
<g transform="translate(288, 104)" class="key keypos-16">
<rect rx="6" ry="6" x="-30" y="-30" width="60" height="60" class="key"/>
</g>
<g transform="translate(352, 112)" class="key keypos-17">
<rect rx="6" ry="6" x="-30" y="-30" width="60" height="60" class="key"/>
</g>
<g transform="translate(608, 112)" class="key keypos-18">
<rect rx="6" ry="6" x="-30" y="-30" width="60" height="60" class="key"/>
</g>
<g transform="translate(672, 104)" class="key keypos-19">
<rect rx="6" ry="6" x="-30" y="-30" width="60" height="60" class="key"/>
</g>
<g transform="translate(736, 96)" class="key keypos-20">
<rect rx="6" ry="6" x="-30" y="-30" width="60" height="60" class="key"/>
</g>
<g transform="translate(800, 104)" class="key keypos-21">
<rect rx="6" ry="6" x="-30" y="-30" width="60" height="60" class="key"/>
</g>
<g transform="translate(864, 120)" class="key keypos-22">
<rect rx="6" ry="6" x="-30" y="-30" width="60" height="60" class="key"/>
</g>
<g transform="translate(928, 120)" class="key keypos-23">
<rect rx="6" ry="6" x="-30" y="-30" width="60" height="60" class="key"/>
</g>
<g transform="translate(32, 184)" class="key keypos-24">
<rect rx="6" ry="6" x="-30" y="-30" width="60" height="60" class="key"/>
</g>
<g transform="translate(96, 184)" class="key keypos-25">
<rect rx="6" ry="6" x="-30" y="-30" width="60" height="60" class="key"/>
</g>
<g transform="translate(160, 168)" class="key keypos-26">
<rect rx="6" ry="6" x="-30" y="-30" width="60" height="60" class="key"/>
</g>
<g transform="translate(224, 160)" class="key keypos-27">
<rect rx="6" ry="6" x="-30" y="-30" width="60" height="60" class="key"/>
</g>
<g transform="translate(288, 168)" class="key keypos-28">
<rect rx="6" ry="6" x="-30" y="-30" width="60" height="60" class="key"/>
</g>
<g transform="translate(352, 176)" class="key keypos-29">
<rect rx="6" ry="6" x="-30" y="-30" width="60" height="60" class="key"/>
</g>
<g transform="translate(608, 176)" class="key keypos-30">
<rect rx="6" ry="6" x="-30" y="-30" width="60" height="60" class="key"/>
</g>
<g transform="translate(672, 168)" class="key keypos-31">
<rect rx="6" ry="6" x="-30" y="-30" width="60" height="60" class="key"/>
</g>
<g transform="translate(736, 160)" class="key keypos-32">
<rect rx="6" ry="6" x="-30" y="-30" width="60" height="60" class="key"/>
</g>
<g transform="translate(800, 168)" class="key keypos-33">
<rect rx="6" ry="6" x="-30" y="-30" width="60" height="60" class="key"/>
</g>
<g transform="translate(864, 184)" class="key keypos-34">
<rect rx="6" ry="6" x="-30" y="-30" width="60" height="60" class="key"/>
</g>
<g transform="translate(928, 184)" class="key keypos-35">
<rect rx="6" ry="6" x="-30" y="-30" width="60" height="60" class="key"/>
</g>
<g transform="translate(256, 234)" class="key keypos-36">
<rect rx="6" ry="6" x="-30" y="-30" width="60" height="60" class="key"/>
</g>
<g transform="translate(326, 244) rotate(15.0)" class="key keypos-37">
<rect rx="6" ry="6" x="-30" y="-30" width="60" height="60" class="key"/>
</g>
<g transform="translate(401, 256) rotate(30.0)" class="key keypos-38">
<rect rx="6" ry="6" x="-30" y="-46" width="60" height="92" class="key"/>
</g>
<g transform="translate(559, 256) rotate(-30.0)" class="key keypos-39">
<rect rx="6" ry="6" x="-30" y="-46" width="60" height="92" class="key"/>
</g>
<g transform="translate(634, 244) rotate(-15.0)" class="key keypos-40">
<rect rx="6" ry="6" x="-30" y="-30" width="60" height="60" class="key"/>
</g>
<g transform="translate(704, 234)" class="key keypos-41">
<rect rx="6" ry="6" x="-30" y="-30" width="60" height="60" class="key"/>
</g>
<g class="combo combopos-0">
<rect rx="6" ry="6" x="178" y="23" width="28" height="26" class="combo"/>
<text x="192" y="36" class="combo tap">ESC</text>
</g>
<g class="combo combopos-1">
<rect rx="6" ry="6" x="242" y="23" width="28" height="26" class="combo"/>
<text x="256" y="36" class="combo tap">RET</text>
</g>
<g class="combo combopos-2">
<path d="M224,-9 h-58 a6.0,6.0 0 0 0 -6.0,6.0 v22" class="combo"/>
<path d="M224,-9 h58 a6.0,6.0 0 0 1 6.0,6.0 v22" class="combo"/>
<rect rx="6" ry="6" x="206" y="-24" width="35" height="30" class="combo"/>
<text x="224" y="-9" class="combo tap">
<tspan x="224" dy="-0.55em">Smart</tspan><tspan x="224" dy="1.1em">Mouse</tspan>
</text>
</g>
<g class="combo combopos-3">
<rect rx="6" ry="6" x="178" y="87" width="28" height="26" class="combo"/>
<text x="192" y="100" class="combo tap">Tab</text>
</g>
<g class="combo combopos-4">
<rect rx="6" ry="6" x="242" y="87" width="28" height="26" class="combo"/>
<text x="256" y="100" class="combo tap">ldr</text>
</g>
<g class="combo combopos-6">
<path d="M224,204 h-58 a6.0,6.0 0 0 1 -6.0,-6.0 v-9" class="combo"/>
<path d="M224,204 h58 a6.0,6.0 0 0 0 6.0,-6.0 v-9" class="combo"/>
<rect rx="6" ry="6" x="206" y="189" width="35" height="30" class="combo"/>
<text x="224" y="204" class="combo tap">
<tspan x="224" dy="-0.55em">✂</tspan><tspan x="224" dy="1.1em">Cut</tspan>
</text>
</g>
<g class="combo combopos-7">
<rect rx="6" ry="6" x="174" y="149" width="35" height="30" class="combo"/>
<text x="192" y="164" class="combo tap">
<tspan x="192" dy="-0.55em">⧉</tspan><tspan x="192" dy="1.1em">Copy</tspan>
</text>
</g>
<g class="combo combopos-8">
<rect rx="6" ry="6" x="238" y="149" width="35" height="30" class="combo"/>
<text x="256" y="164" class="combo tap">
<tspan x="256" dy="-0.55em">🗎</tspan><tspan x="256" dy="1.1em">Paste</tspan>
</text>
</g>
<g class="combo combopos-9">
<rect rx="6" ry="6" x="690" y="23" width="28" height="26" class="combo"/>
<text x="704" y="36" class="combo tap">⌫</text>
</g>
<g class="combo combopos-10">
<rect rx="6" ry="6" x="754" y="23" width="28" height="26" class="combo"/>
<text x="768" y="36" class="combo tap">⌦</text>
</g>
<g class="combo combopos-11">
<rect rx="6" ry="6" x="690" y="87" width="28" height="26" class="combo"/>
<text x="704" y="100" class="combo tap">(</text>
</g>
<g class="combo combopos-12">
<rect rx="6" ry="6" x="754" y="87" width="28" height="26" class="combo"/>
<text x="768" y="100" class="combo tap">)</text>
</g>
<g class="combo combopos-13">
<rect rx="6" ry="6" x="690" y="151" width="28" height="26" class="combo"/>
<text x="704" y="164" class="combo tap">[</text>
</g>
<g class="combo combopos-14">
<rect rx="6" ry="6" x="754" y="151" width="28" height="26" class="combo"/>
<text x="768" y="164" class="combo tap">]</text>
</g>
<g class="combo combopos-15">
<rect rx="6" ry="6" x="146" y="59" width="28" height="26" class="combo"/>
<text x="160" y="72" class="combo tap">@</text>
</g>
<g class="combo combopos-16">
<rect rx="6" ry="6" x="210" y="51" width="28" height="26" class="combo"/>
<text x="224" y="64" class="combo tap">#</text>
</g>
<g class="combo combopos-17">
<rect rx="6" ry="6" x="274" y="59" width="28" height="26" class="combo"/>
<text x="288" y="72" class="combo tap">$</text>
</g>
<g class="combo combopos-18">
<rect rx="6" ry="6" x="338" y="67" width="28" height="26" class="combo"/>
<text x="352" y="80" class="combo tap">%</text>
</g>
<g class="combo combopos-19">
<rect rx="6" ry="6" x="146" y="123" width="28" height="26" class="combo"/>
<text x="160" y="136" class="combo tap">`</text>
</g>
<g class="combo combopos-20">
<rect rx="6" ry="6" x="210" y="115" width="28" height="26" class="combo"/>
<text x="224" y="128" class="combo tap">\</text>
</g>
<g class="combo combopos-21">
<rect rx="6" ry="6" x="274" y="123" width="28" height="26" class="combo"/>
<text x="288" y="136" class="combo tap">=</text>
</g>
<g class="combo combopos-22">
<rect rx="6" ry="6" x="338" y="131" width="28" height="26" class="combo"/>
<text x="352" y="144" class="combo tap">~</text>
</g>
<g class="combo combopos-23">
<rect rx="6" ry="6" x="594" y="67" width="28" height="26" class="combo"/>
<text x="608" y="80" class="combo tap">^</text>
</g>
<g class="combo combopos-24">
<rect rx="6" ry="6" x="658" y="59" width="28" height="26" class="combo"/>
<text x="672" y="72" class="combo tap">+</text>
</g>
<g class="combo combopos-25">
<rect rx="6" ry="6" x="722" y="51" width="28" height="26" class="combo"/>
<text x="736" y="64" class="combo tap">*</text>
</g>
<g class="combo combopos-26">
<rect rx="6" ry="6" x="786" y="59" width="28" height="26" class="combo"/>
<text x="800" y="72" class="combo tap">&amp;</text>
</g>
<g class="combo combopos-27">
<rect rx="6" ry="6" x="594" y="131" width="28" height="26" class="combo"/>
<text x="608" y="144" class="combo tap">_</text>
</g>
<g class="combo combopos-28">
<rect rx="6" ry="6" x="658" y="123" width="28" height="26" class="combo"/>
<text x="672" y="136" class="combo tap">-</text>
</g>
<g class="combo combopos-29">
<rect rx="6" ry="6" x="722" y="115" width="28" height="26" class="combo"/>
<text x="736" y="128" class="combo tap">/</text>
</g>
<g class="combo combopos-30">
<rect rx="6" ry="6" x="786" y="123" width="28" height="26" class="combo"/>
<text x="800" y="136" class="combo tap">|</text>
</g>
</g>
</g>
<g transform="translate(30, 394)" class="layer-NAV">
<text x="0" y="28" class="label" id="NAV">NAV</text>
<g transform="translate(0, 80)">
<g transform="translate(32, 56)" class="key keypos-0">
<rect rx="6" ry="6" x="-30" y="-30" width="60" height="60" class="key"/>
</g>
<g transform="translate(96, 56)" class="key keypos-1">
<rect rx="6" ry="6" x="-30" y="-30" width="60" height="60" class="key"/>
</g>
<g transform="translate(160, 40)" class="key keypos-2">
<rect rx="6" ry="6" x="-30" y="-30" width="60" height="60" class="key"/>
</g>
<g transform="translate(224, 32)" class="key keypos-3">
<rect rx="6" ry="6" x="-30" y="-30" width="60" height="60" class="key"/>
</g>
<g transform="translate(288, 40)" class="key keypos-4">
<rect rx="6" ry="6" x="-30" y="-30" width="60" height="60" class="key"/>
</g>
<g transform="translate(352, 48)" class="key keypos-5">
<rect rx="6" ry="6" x="-30" y="-30" width="60" height="60" class="key"/>
</g>
<g transform="translate(608, 48)" class="key keypos-6">
<rect rx="6" ry="6" x="-30" y="-30" width="60" height="60" class="key"/>
</g>
<g transform="translate(672, 40)" class="key keypos-7">
<rect rx="6" ry="6" x="-30" y="-30" width="60" height="60" class="key"/>
</g>
<g transform="translate(736, 32)" class="key keypos-8">
<rect rx="6" ry="6" x="-30" y="-30" width="60" height="60" class="key"/>
</g>
<g transform="translate(800, 40)" class="key keypos-9">
<rect rx="6" ry="6" x="-30" y="-30" width="60" height="60" class="key"/>
</g>
<g transform="translate(864, 56)" class="key keypos-10">
<rect rx="6" ry="6" x="-30" y="-30" width="60" height="60" class="key"/>
</g>
<g transform="translate(928, 56)" class="key keypos-11">
<rect rx="6" ry="6" x="-30" y="-30" width="60" height="60" class="key"/>
</g>
<g transform="translate(32, 120)" class="key keypos-12">
<rect rx="6" ry="6" x="-30" y="-30" width="60" height="60" class="key"/>
</g>
<g transform="translate(96, 120)" class="key keypos-13">
<rect rx="6" ry="6" x="-30" y="-30" width="60" height="60" class="key"/>
</g>
<g transform="translate(160, 104)" class="key keypos-14">
<rect rx="6" ry="6" x="-30" y="-30" width="60" height="60" class="key"/>
</g>
<g transform="translate(224, 96)" class="key keypos-15">
<rect rx="6" ry="6" x="-30" y="-30" width="60" height="60" class="key"/>
</g>
<g transform="translate(288, 104)" class="key keypos-16">
<rect rx="6" ry="6" x="-30" y="-30" width="60" height="60" class="key"/>
</g>
<g transform="translate(352, 112)" class="key keypos-17">
<rect rx="6" ry="6" x="-30" y="-30" width="60" height="60" class="key"/>
</g>
<g transform="translate(608, 112)" class="key keypos-18">
<rect rx="6" ry="6" x="-30" y="-30" width="60" height="60" class="key"/>
</g>
<g transform="translate(672, 104)" class="key keypos-19">
<rect rx="6" ry="6" x="-30" y="-30" width="60" height="60" class="key"/>
</g>
<g transform="translate(736, 96)" class="key keypos-20">
<rect rx="6" ry="6" x="-30" y="-30" width="60" height="60" class="key"/>
</g>
<g transform="translate(800, 104)" class="key keypos-21">
<rect rx="6" ry="6" x="-30" y="-30" width="60" height="60" class="key"/>
</g>
<g transform="translate(864, 120)" class="key keypos-22">
<rect rx="6" ry="6" x="-30" y="-30" width="60" height="60" class="key"/>
</g>
<g transform="translate(928, 120)" class="key keypos-23">
<rect rx="6" ry="6" x="-30" y="-30" width="60" height="60" class="key"/>
</g>
<g transform="translate(32, 184)" class="key keypos-24">
<rect rx="6" ry="6" x="-30" y="-30" width="60" height="60" class="key"/>
</g>
<g transform="translate(96, 184)" class="key keypos-25">
<rect rx="6" ry="6" x="-30" y="-30" width="60" height="60" class="key"/>
</g>
<g transform="translate(160, 168)" class="key keypos-26">
<rect rx="6" ry="6" x="-30" y="-30" width="60" height="60" class="key"/>
</g>
<g transform="translate(224, 160)" class="key keypos-27">
<rect rx="6" ry="6" x="-30" y="-30" width="60" height="60" class="key"/>
</g>
<g transform="translate(288, 168)" class="key keypos-28">
<rect rx="6" ry="6" x="-30" y="-30" width="60" height="60" class="key"/>
</g>
<g transform="translate(352, 176)" class="key keypos-29">
<rect rx="6" ry="6" x="-30" y="-30" width="60" height="60" class="key"/>
</g>
<g transform="translate(608, 176)" class="key keypos-30">
<rect rx="6" ry="6" x="-30" y="-30" width="60" height="60" class="key"/>
</g>
<g transform="translate(672, 168)" class="key keypos-31">
<rect rx="6" ry="6" x="-30" y="-30" width="60" height="60" class="key"/>
</g>
<g transform="translate(736, 160)" class="key keypos-32">
<rect rx="6" ry="6" x="-30" y="-30" width="60" height="60" class="key"/>
</g>
<g transform="translate(800, 168)" class="key keypos-33">
<rect rx="6" ry="6" x="-30" y="-30" width="60" height="60" class="key"/>
</g>
<g transform="translate(864, 184)" class="key keypos-34">
<rect rx="6" ry="6" x="-30" y="-30" width="60" height="60" class="key"/>
</g>
<g transform="translate(928, 184)" class="key keypos-35">
<rect rx="6" ry="6" x="-30" y="-30" width="60" height="60" class="key"/>
</g>
<g transform="translate(256, 234)" class="key keypos-36">
<rect rx="6" ry="6" x="-30" y="-30" width="60" height="60" class="key"/>
</g>
<g transform="translate(326, 244) rotate(15.0)" class="key keypos-37">
<rect rx="6" ry="6" x="-30" y="-30" width="60" height="60" class="key"/>
</g>
<g transform="translate(401, 256) rotate(30.0)" class="key keypos-38">
<rect rx="6" ry="6" x="-30" y="-46" width="60" height="92" class="key"/>
</g>
<g transform="translate(559, 256) rotate(-30.0)" class="key keypos-39">
<rect rx="6" ry="6" x="-30" y="-46" width="60" height="92" class="key"/>
</g>
<g transform="translate(634, 244) rotate(-15.0)" class="key keypos-40">
<rect rx="6" ry="6" x="-30" y="-30" width="60" height="60" class="key"/>
</g>
<g transform="translate(704, 234)" class="key keypos-41">
<rect rx="6" ry="6" x="-30" y="-30" width="60" height="60" class="key"/>
</g>
<g class="combo combopos-0">
<rect rx="6" ry="6" x="178" y="23" width="28" height="26" class="combo"/>
<text x="192" y="36" class="combo tap">ESC</text>
</g>
<g class="combo combopos-1">
<rect rx="6" ry="6" x="242" y="23" width="28" height="26" class="combo"/>
<text x="256" y="36" class="combo tap">RET</text>
</g>
<g class="combo combopos-2">
<path d="M224,-9 h-58 a6.0,6.0 0 0 0 -6.0,6.0 v22" class="combo"/>
<path d="M224,-9 h58 a6.0,6.0 0 0 1 6.0,6.0 v22" class="combo"/>
<rect rx="6" ry="6" x="206" y="-24" width="35" height="30" class="combo"/>
<text x="224" y="-9" class="combo tap">
<tspan x="224" dy="-0.55em">Smart</tspan><tspan x="224" dy="1.1em">Mouse</tspan>
</text>
</g>
<g class="combo combopos-3">
<rect rx="6" ry="6" x="178" y="87" width="28" height="26" class="combo"/>
<text x="192" y="100" class="combo tap">Tab</text>
</g>
<g class="combo combopos-4">
<rect rx="6" ry="6" x="242" y="87" width="28" height="26" class="combo"/>
<text x="256" y="100" class="combo tap">ldr</text>
</g>
<g class="combo combopos-6">
<path d="M224,204 h-58 a6.0,6.0 0 0 1 -6.0,-6.0 v-9" class="combo"/>
<path d="M224,204 h58 a6.0,6.0 0 0 0 6.0,-6.0 v-9" class="combo"/>
<rect rx="6" ry="6" x="206" y="189" width="35" height="30" class="combo"/>
<text x="224" y="204" class="combo tap">
<tspan x="224" dy="-0.55em">✂</tspan><tspan x="224" dy="1.1em">Cut</tspan>
</text>
</g>
<g class="combo combopos-7">
<rect rx="6" ry="6" x="174" y="149" width="35" height="30" class="combo"/>
<text x="192" y="164" class="combo tap">
<tspan x="192" dy="-0.55em">⧉</tspan><tspan x="192" dy="1.1em">Copy</tspan>
</text>
</g>
<g class="combo combopos-8">
<rect rx="6" ry="6" x="238" y="149" width="35" height="30" class="combo"/>
<text x="256" y="164" class="combo tap">
<tspan x="256" dy="-0.55em">🗎</tspan><tspan x="256" dy="1.1em">Paste</tspan>
</text>
</g>
<g class="combo combopos-9">
<rect rx="6" ry="6" x="690" y="23" width="28" height="26" class="combo"/>
<text x="704" y="36" class="combo tap">⌫</text>
</g>
<g class="combo combopos-10">
<rect rx="6" ry="6" x="754" y="23" width="28" height="26" class="combo"/>
<text x="768" y="36" class="combo tap">⌦</text>
</g>
<g class="combo combopos-11">
<rect rx="6" ry="6" x="690" y="87" width="28" height="26" class="combo"/>
<text x="704" y="100" class="combo tap">&lt;</text>
</g>
<g class="combo combopos-12">
<rect rx="6" ry="6" x="754" y="87" width="28" height="26" class="combo"/>
<text x="768" y="100" class="combo tap">&gt;</text>
</g>
<g class="combo combopos-13">
<rect rx="6" ry="6" x="690" y="151" width="28" height="26" class="combo"/>
<text x="704" y="164" class="combo tap">{</text>
</g>
<g class="combo combopos-14">
<rect rx="6" ry="6" x="754" y="151" width="28" height="26" class="combo"/>
<text x="768" y="164" class="combo tap">}</text>
</g>
<g class="combo combopos-15">
<rect rx="6" ry="6" x="146" y="59" width="28" height="26" class="combo"/>
<text x="160" y="72" class="combo tap">@</text>
</g>
<g class="combo combopos-16">
<rect rx="6" ry="6" x="210" y="51" width="28" height="26" class="combo"/>
<text x="224" y="64" class="combo tap">#</text>
</g>
<g class="combo combopos-17">
<rect rx="6" ry="6" x="274" y="59" width="28" height="26" class="combo"/>
<text x="288" y="72" class="combo tap">$</text>
</g>
<g class="combo combopos-18">
<rect rx="6" ry="6" x="338" y="67" width="28" height="26" class="combo"/>
<text x="352" y="80" class="combo tap">%</text>
</g>
<g class="combo combopos-19">
<rect rx="6" ry="6" x="146" y="123" width="28" height="26" class="combo"/>
<text x="160" y="136" class="combo tap">`</text>
</g>
<g class="combo combopos-20">
<rect rx="6" ry="6" x="210" y="115" width="28" height="26" class="combo"/>
<text x="224" y="128" class="combo tap">\</text>
</g>
<g class="combo combopos-21">
<rect rx="6" ry="6" x="274" y="123" width="28" height="26" class="combo"/>
<text x="288" y="136" class="combo tap">=</text>
</g>
<g class="combo combopos-22">
<rect rx="6" ry="6" x="338" y="131" width="28" height="26" class="combo"/>
<text x="352" y="144" class="combo tap">~</text>
</g>
<g class="combo combopos-23">
<rect rx="6" ry="6" x="594" y="67" width="28" height="26" class="combo"/>
<text x="608" y="80" class="combo tap">^</text>
</g>
<g class="combo combopos-24">
<rect rx="6" ry="6" x="658" y="59" width="28" height="26" class="combo"/>
<text x="672" y="72" class="combo tap">+</text>
</g>
<g class="combo combopos-25">
<rect rx="6" ry="6" x="722" y="51" width="28" height="26" class="combo"/>
<text x="736" y="64" class="combo tap">*</text>
</g>
<g class="combo combopos-26">
<rect rx="6" ry="6" x="786" y="59" width="28" height="26" class="combo"/>
<text x="800" y="72" class="combo tap">&amp;</text>
</g>
<g class="combo combopos-27">
<rect rx="6" ry="6" x="594" y="131" width="28" height="26" class="combo"/>
<text x="608" y="144" class="combo tap">_</text>
</g>
<g class="combo combopos-28">
<rect rx="6" ry="6" x="658" y="123" width="28" height="26" class="combo"/>
<text x="672" y="136" class="combo tap">-</text>
</g>
<g class="combo combopos-29">
<rect rx="6" ry="6" x="722" y="115" width="28" height="26" class="combo"/>
<text x="736" y="128" class="combo tap">/</text>
</g>
<g class="combo combopos-30">
<rect rx="6" ry="6" x="786" y="123" width="28" height="26" class="combo"/>
<text x="800" y="136" class="combo tap">|</text>
</g>
</g>
</g>
<text x="990.0" y="816.0" class="footer">geas/zmk-config</text></svg>
